<?xml version="1.0" standalone="no"?>
<!DOCTYPE svg PUBLIC "-//W3C//DTD SVG 20010904//EN"
 "http://www.w3.org/TR/2001/REC-SVG-20010904/DTD/svg10.dtd">
<svg version="1.0" xmlns="http://www.w3.org/2000/svg"
 width="954.000000pt" height="311.000000pt" viewBox="0 0 954.000000 311.000000"
 preserveAspectRatio="xMidYMid meet">
<metadata>
Created by potrace 1.13, written by Peter Selinger 2001-2015
</metadata>
<g transform="translate(0.000000,311.000000) scale(0.100000,-0.100000)"
fill="#000" stroke="none">
<path d="M7485 1984 c-169 -43 -260 -117 -306 -251 -25 -74 -36 -268 -20 -377
33 -232 190 -356 451 -356 261 0 418 124 451 356 16 109 5 303 -20 377 -39
111 -119 190 -236 232 -49 17 -273 31 -320 19z m249 -178 c50 -21 93 -64 111
-109 13 -36 16 -75 13 -219 -3 -172 -3 -175 -31 -215 -15 -22 -46 -50 -70 -64
-37 -21 -54 -24 -148 -24 -100 0 -108 2 -154 30 -32 20 -56 45 -72 74 -21 41
-23 55 -23 215 0 158 2 175 23 216 26 53 85 97 147 110 55 11 161 4 204 -14z"/>
<path style="fill:#178fac;" d="M3163 1973 c-48 -9 -71 -93 -38 -140 20 -28 73 -38 119 -23 41 13 56
35 56 80 0 44 -14 66 -51 79 -32 11 -46 12 -86 4z"/>
<path d="M4090 1962 c-80 -27 -112 -46 -153 -91 -33 -36 -67 -118 -67 -161 0
-53 34 -127 79 -170 46 -46 85 -65 258 -130 106 -40 143 -73 143 -130 0 -112
-174 -156 -340 -85 -121 51 -160 43 -160 -31 0 -60 16 -83 75 -110 184 -84
442 -58 556 56 77 77 100 201 55 288 -38 73 -94 110 -264 173 -126 47 -168 71
-188 111 -60 116 127 192 293 118 57 -25 96 -28 119 -9 25 21 14 106 -17 130
-67 52 -286 75 -389 41z"/>
<path d="M5123 1965 l-23 -16 0 -463 0 -463 25 -11 c34 -16 104 -15 135 1 l25
13 5 216 5 217 175 -219 c193 -242 198 -246 298 -238 58 5 84 24 75 56 -2 9
-85 116 -184 237 -98 121 -179 224 -179 229 0 5 71 83 158 173 152 159 212
228 212 244 0 4 -7 15 -16 23 -19 19 -140 22 -178 4 -14 -6 -100 -94 -191
-195 -91 -100 -170 -183 -175 -183 -6 0 -10 70 -10 179 0 204 1 202 -83 208
-37 3 -58 0 -74 -12z"/>
<path d="M6436 1959 l-26 -20 0 -454 c0 -359 3 -455 13 -463 24 -21 91 -25
130 -8 l37 15 0 455 0 455 -26 20 c-16 13 -41 21 -64 21 -23 0 -48 -8 -64 -21z"/>
<path  style="fill:#178fac;"  d="M1790 1960 c-13 -8 -15 -72 -18 -456 -3 -521 -8 -494 87 -494 90 0
91 3 91 209 0 100 4 180 10 192 10 18 23 19 179 19 144 0 171 -2 182 -17 11
-12 15 -62 17 -197 3 -208 3 -206 88 -206 89 0 84 -31 84 480 0 394 -2 450
-16 464 -19 20 -126 22 -142 3 -6 -7 -12 -80 -14 -173 -2 -118 -7 -165 -17
-177 -11 -15 -38 -17 -182 -17 -156 0 -169 1 -179 19 -6 11 -10 87 -10 175 0
183 -1 186 -88 186 -31 0 -64 -5 -72 -10z"/>
<path style="fill:#178fac;" d="M3126 1714 c-14 -13 -16 -59 -16 -349 0 -383 -7 -356 97 -356 97 0
93 -17 93 361 0 380 5 360 -98 360 -42 0 -65 -5 -76 -16z"/>
</g>
</svg>
