<svg id="Layer_1" enable-background="new 0 0 256 256" height="512" viewBox="0 0 256 256" width="512" xmlns="http://www.w3.org/2000/svg"><path d="m15 37.917h226v135h-226z" fill="#e0ebfc"/><path d="m241.917 25.75h-227.834c-3.359 0-6.083 2.724-6.083 6.083 0 3.36 2.724 6.083 6.083 6.083h227.833c3.36 0 6.083-2.724 6.083-6.083.001-3.359-2.723-6.083-6.082-6.083z" fill="#6bdddd"/><path d="m241.917 172.917h-227.834c-3.359 0-6.083 2.723-6.083 6.083 0 3.36 2.724 6.083 6.083 6.083h227.833c3.36 0 6.083-2.724 6.083-6.083.001-3.36-2.723-6.083-6.082-6.083z" fill="#6bdddd"/><path d="m178 185.083h-100v4.167c0 4.418 3.582 8 8 8h84c4.418 0 8-3.582 8-8z" fill="#f9a7a7"/><path d="m145.167 241.417h-34.333c-1.105 0-2-.895-2-2v-42.167h38.333v42.167c0 1.104-.896 2-2 2z" fill="#f9cfcf"/><g fill="#3762cc"><path d="m241 174.917h-226c-1.104 0-2-.896-2-2v-135c0-1.104.896-2 2-2h226c1.104 0 2 .896 2 2v135c0 1.104-.896 2-2 2zm-224-4h222v-131h-222z"/><path d="m241.917 39.917h-227.834c-4.457 0-8.083-3.627-8.083-8.084s3.626-8.083 8.083-8.083h227.833c4.457 0 8.083 3.626 8.083 8.083s-3.625 8.084-8.082 8.084zm-227.834-12.167c-2.251 0-4.083 1.832-4.083 4.083 0 2.252 1.832 4.084 4.083 4.084h227.833c2.251 0 4.083-1.832 4.083-4.084 0-2.251-1.832-4.083-4.083-4.083z"/><path d="m241.917 187.083h-227.834c-4.457 0-8.083-3.626-8.083-8.083s3.626-8.083 8.083-8.083h227.833c4.457 0 8.083 3.626 8.083 8.083s-3.625 8.083-8.082 8.083zm-227.834-12.166c-2.251 0-4.083 1.832-4.083 4.083s1.832 4.083 4.083 4.083h227.833c2.251 0 4.083-1.832 4.083-4.083s-1.832-4.083-4.083-4.083z"/><path d="m170 199.25h-84c-5.514 0-10-4.486-10-10v-4.167c0-1.104.896-2 2-2h100c1.104 0 2 .896 2 2v4.167c0 5.514-4.486 10-10 10zm-90-12.167v2.167c0 3.309 2.691 6 6 6h84c3.309 0 6-2.691 6-6v-2.167z"/><path d="m145.167 243.417h-34.333c-2.206 0-4-1.794-4-4v-42.167c0-1.104.896-2 2-2h38.333c1.104 0 2 .896 2 2v42.167c0 2.206-1.795 4-4 4zm-34.334-44.167v40.167h34.335l-.002-40.167z"/></g><path d="m207 43.583h-10v-24c0-2.761 2.239-5 5-5 2.761 0 5 2.239 5 5z" fill="#f9cfcf"/><path d="m207 45.583h-10c-1.104 0-2-.896-2-2v-24c0-3.859 3.14-7 7-7s7 3.141 7 7v24c0 1.105-.896 2-2 2zm-8-4h6v-22c0-1.654-1.346-3-3-3s-3 1.346-3 3z" fill="#3762cc"/><path d="m69 64.25h-30c-2.209 0-4-1.791-4-4v-12.667c0-2.209 1.791-4 4-4h30c2.209 0 4 1.791 4 4v12.667c0 2.209-1.791 4-4 4z" fill="#f9a7a7"/><path d="m59 43.583h-10v-24c0-2.761 2.239-5 5-5 2.761 0 5 2.239 5 5z" fill="#f9cfcf"/><path d="m59 45.583h-10c-1.104 0-2-.896-2-2v-24c0-3.859 3.14-7 7-7s7 3.141 7 7v24c0 1.105-.896 2-2 2zm-8-4h6v-22c0-1.654-1.346-3-3-3s-3 1.346-3 3z" fill="#3762cc"/><path d="m69 66.25h-30c-3.309 0-6-2.691-6-6v-12.667c0-3.309 2.691-6 6-6h30c3.309 0 6 2.691 6 6v12.667c0 3.309-2.691 6-6 6zm-30-20.667c-1.103 0-2 .897-2 2v12.667c0 1.103.897 2 2 2h30c1.103 0 2-.897 2-2v-12.667c0-1.103-.897-2-2-2z" fill="#3762cc"/><path d="m217 64.25h-30c-2.209 0-4-1.791-4-4v-12.667c0-2.209 1.791-4 4-4h30c2.209 0 4 1.791 4 4v12.667c0 2.209-1.791 4-4 4z" fill="#f9a7a7"/><path d="m217 66.25h-30c-3.309 0-6-2.691-6-6v-12.667c0-3.309 2.691-6 6-6h30c3.309 0 6 2.691 6 6v12.667c0 3.309-2.691 6-6 6zm-30-20.667c-1.103 0-2 .897-2 2v12.667c0 1.103.897 2 2 2h30c1.103 0 2-.897 2-2v-12.667c0-1.103-.897-2-2-2z" fill="#3762cc"/><path d="m159.545 155.368h-77.06c-2.481 0-4.491-2.011-4.491-4.491v-52.774c0-2.481 2.011-4.491 4.491-4.491h77.06c2.481 0 4.491 2.011 4.491 4.491v52.774c0 2.48-2.01 4.491-4.491 4.491z" fill="#4671c6"/><circle cx="138.029" cy="72.165" fill="#a4c9ff" r="21.446"/><circle cx="99.668" cy="76.498" fill="#a4c9ff" r="17.114"/><path d="m93.194 71.001c-.258 0-.517-.099-.714-.296l-3.42-3.42c-.395-.395-.395-1.034 0-1.429.394-.394 1.034-.394 1.428 0l3.42 3.42c.395.395.395 1.034 0 1.429-.197.197-.456.296-.714.296z" fill="#e0ebfc"/><path d="m106.142 71.001c-.258 0-.517-.099-.714-.296-.395-.395-.395-1.034 0-1.429l3.42-3.42c.394-.394 1.034-.394 1.428 0 .395.395.395 1.034 0 1.429l-3.42 3.42c-.197.197-.456.296-.714.296z" fill="#e0ebfc"/><path d="m129.917 65.282c-.323 0-.646-.123-.893-.37l-4.286-4.286c-.493-.493-.493-1.293 0-1.786s1.293-.493 1.786 0l4.286 4.286c.493.493.493 1.293 0 1.786-.247.246-.57.37-.893.37z" fill="#e0ebfc"/><path d="m146.142 65.282c-.323 0-.646-.123-.893-.37-.493-.493-.493-1.293 0-1.786l4.286-4.286c.493-.493 1.293-.493 1.786 0s.493 1.293 0 1.786l-4.286 4.286c-.246.246-.57.37-.893.37z" fill="#e0ebfc"/><circle cx="138.029" cy="72.165" fill="#f9cfcf" r="7.517"/><path d="m164.036 111.586v11.893 11.893l22.03 10.662c1.19.576 2.543-.345 2.543-1.731v-20.824-20.824c0-1.386-1.353-2.307-2.543-1.731z" fill="#f9a7a7"/><path d="m77.993 147.084h-6.112c-2.481 0-4.491-2.011-4.491-4.491v-36.207c0-2.481 2.011-4.491 4.491-4.491h6.112z" fill="#f9a7a7"/><path d="m138.029 95.611c-12.928 0-23.446-10.518-23.446-23.446s10.518-23.446 23.446-23.446 23.446 10.518 23.446 23.446-10.517 23.446-23.446 23.446zm0-42.892c-10.723 0-19.446 8.724-19.446 19.446s8.724 19.446 19.446 19.446 19.446-8.724 19.446-19.446-8.723-19.446-19.446-19.446z" fill="#3762cc"/><path d="m138.029 81.683c-5.248 0-9.517-4.27-9.517-9.518s4.27-9.518 9.517-9.518c5.248 0 9.518 4.27 9.518 9.518s-4.27 9.518-9.518 9.518zm0-15.036c-3.042 0-5.517 2.476-5.517 5.518s2.475 5.518 5.517 5.518 5.518-2.476 5.518-5.518-2.475-5.518-5.518-5.518z" fill="#3762cc"/><path d="m150.428 85.826c-.323 0-.646-.123-.893-.37l-4.286-4.286c-.493-.493-.493-1.293 0-1.786s1.293-.493 1.786 0l4.286 4.286c.493.493.493 1.293 0 1.786-.247.247-.57.37-.893.37z" fill="#e0ebfc"/><circle cx="99.668" cy="76.498" fill="#f9cfcf" r="5.999"/><path d="m99.667 95.611c-10.539 0-19.113-8.574-19.113-19.113s8.574-19.113 19.113-19.113c10.54 0 19.114 8.574 19.114 19.113s-8.574 19.113-19.114 19.113zm0-34.226c-8.333 0-15.113 6.78-15.113 15.113s6.78 15.113 15.113 15.113c8.334 0 15.114-6.78 15.114-15.113s-6.78-15.113-15.114-15.113z" fill="#3762cc"/><path d="m99.668 84.497c-4.411 0-7.999-3.588-7.999-7.999s3.588-7.999 7.999-7.999 7.999 3.588 7.999 7.999-3.588 7.999-7.999 7.999zm0-11.998c-2.205 0-3.999 1.794-3.999 3.999s1.794 3.999 3.999 3.999 3.999-1.794 3.999-3.999-1.794-3.999-3.999-3.999z" fill="#3762cc"/><path d="m109.561 87.401c-.258 0-.517-.099-.714-.296l-3.42-3.42c-.395-.395-.395-1.034 0-1.429.394-.394 1.034-.394 1.428 0l3.42 3.42c.395.395.395 1.034 0 1.429-.196.198-.455.296-.714.296z" fill="#e0ebfc"/><path d="m89.774 87.401c-.258 0-.517-.099-.714-.296-.395-.395-.395-1.034 0-1.429l3.42-3.42c.394-.394 1.034-.394 1.428 0 .395.395.395 1.034 0 1.429l-3.42 3.42c-.197.198-.455.296-.714.296z" fill="#e0ebfc"/><path d="m148.613 140.707h-56.064c-1.953 0-3.536-1.583-3.536-3.536v-24.497c0-1.953 1.583-3.536 3.536-3.536h56.064c1.953 0 3.536 1.583 3.536 3.536v24.497c0 1.953-1.583 3.536-3.536 3.536z" fill="#6bdddd"/><path d="m135.982 128.25h-31.379c-1.928 0-3.491-1.563-3.491-3.491 0-1.928 1.563-3.491 3.491-3.491h31.379c1.928 0 3.491 1.563 3.491 3.491.001 1.928-1.562 3.491-3.491 3.491z" fill="#ffea92"/><path d="m148.613 142.707h-56.064c-3.052 0-5.536-2.483-5.536-5.535v-24.497c0-3.052 2.483-5.535 5.536-5.535h56.064c3.052 0 5.536 2.483 5.536 5.535v24.497c0 3.052-2.483 5.535-5.536 5.535zm-56.064-31.567c-.847 0-1.536.688-1.536 1.535v24.497c0 .847.689 1.535 1.536 1.535h56.064c.847 0 1.536-.688 1.536-1.535v-24.497c0-.847-.689-1.535-1.536-1.535z" fill="#3762cc"/><path d="m135.982 130.25h-31.379c-3.028 0-5.492-2.464-5.492-5.492s2.463-5.491 5.492-5.491h31.379c3.028 0 5.491 2.463 5.491 5.491s-2.463 5.492-5.491 5.492zm-31.378-6.983c-.823 0-1.492.669-1.492 1.491 0 .823.669 1.492 1.492 1.492h31.379c.822 0 1.491-.669 1.491-1.492 0-.822-.669-1.491-1.491-1.491z" fill="#3762cc"/><path d="m90.971 150.254h-4.931c-.908 0-1.644-.736-1.644-1.644v-4.109c0-.908.736-1.644 1.644-1.644h4.931c.908 0 1.644.736 1.644 1.644v4.109c0 .908-.736 1.644-1.644 1.644z" fill="#6bdddd"/><path d="m90.971 152.254h-4.931c-2.009 0-3.644-1.635-3.644-3.644v-4.109c0-2.009 1.635-3.644 3.644-3.644h4.931c2.009 0 3.644 1.635 3.644 3.644v4.109c0 2.009-1.635 3.644-3.644 3.644zm-4.575-4h4.219v-3.396h-4.219z" fill="#3762cc"/><path d="m125.631 85.826c-.323 0-.646-.123-.893-.37-.493-.493-.493-1.293 0-1.786l4.286-4.286c.493-.493 1.293-.493 1.786 0s.493 1.293 0 1.786l-4.286 4.286c-.247.247-.57.37-.893.37z" fill="#e0ebfc"/><path d="m186.815 148.207c-.551 0-1.104-.124-1.62-.374l-22.03-10.661c-.69-.334-1.129-1.033-1.129-1.8v-23.785c0-.767.438-1.466 1.129-1.8l22.03-10.662c1.158-.561 2.502-.488 3.594.197 1.14.715 1.82 1.961 1.82 3.333v41.647c0 1.372-.681 2.618-1.82 3.333-.604.381-1.288.572-1.974.572zm-20.778-14.089 20.573 9.956v-41.19l-20.574 9.957v21.277z" fill="#3762cc"/><path d="m77.993 149.085h-6.112c-3.58 0-6.492-2.912-6.492-6.492v-36.206c0-3.58 2.912-6.492 6.492-6.492h6.112c1.104 0 2 .896 2 2v45.19c0 1.104-.895 2-2 2zm-6.112-45.19c-1.374 0-2.492 1.118-2.492 2.492v36.206c0 1.374 1.118 2.492 2.492 2.492h4.112v-41.19z" fill="#3762cc"/><path d="m159.545 157.368h-77.06c-3.58 0-6.492-2.912-6.492-6.491v-52.774c0-3.579 2.912-6.491 6.492-6.491h77.06c3.58 0 6.492 2.912 6.492 6.491v52.774c0 3.579-2.912 6.491-6.492 6.491zm-77.06-61.757c-1.374 0-2.492 1.117-2.492 2.491v52.774c0 1.374 1.118 2.491 2.492 2.491h77.06c1.374 0 2.492-1.117 2.492-2.491v-52.773c0-1.374-1.118-2.491-2.492-2.491h-77.06z" fill="#3762cc"/></svg>