<svg height="488pt" viewBox="0 0 488 488" width="488pt" xmlns="http://www.w3.org/2000/svg"><path d="m406.636719 394.695312h-372.402344c-16.789063 0-30.398437-13.609374-30.398437-30.398437v-281.199219c0-16.792968 13.609374-30.402344 30.398437-30.402344h372.402344c16.789062 0 30.398437 13.609376 30.398437 30.402344v281.199219c0 16.789063-13.609375 30.398437-30.398437 30.398437zm0 0" fill="#a4c9ff"/><path d="m437.035156 367.335938v-41.039063h-433.199218v41.039063c0 15.109374 13.609374 27.359374 30.398437 27.359374h372.402344c16.789062 0 30.398437-12.246093 30.398437-27.359374zm0 0" fill="#e0ebfc"/><path d="m352.273438 483.996094h-263.671876c-5.890624 0-10.664062-4.773438-10.664062-10.664063v-5.273437c0-5.886719 4.773438-10.664063 10.664062-10.664063h263.671876c5.886718 0 10.664062 4.777344 10.664062 10.664063v5.273437c0 5.890625-4.777344 10.664063-10.664062 10.664063zm0 0" fill="#e0ebfc"/><path d="m26.636719 292.097656v-205.203125c0-6.292969 5.101562-11.398437 11.398437-11.398437h364.800782c6.296874 0 11.398437 5.105468 11.398437 11.398437v205.203125c0 6.292969-5.101563 11.398438-11.398437 11.398438h-364.800782c-6.296875 0-11.398437-5.105469-11.398437-11.398438zm0 0" fill="#4671c6"/><g fill="#3762cc"><path d="m406.800781 398.699219h-372.402343c-18.964844 0-34.398438-15.429688-34.398438-34.398438v-281.199219c0-18.96875 15.433594-34.402343 34.398438-34.402343h372.402343c18.96875 0 34.398438 15.433593 34.398438 34.402343v281.199219c.003906 18.96875-15.429688 34.398438-34.398438 34.398438zm-372.398437-342c-14.554688 0-26.398438 11.84375-26.398438 26.402343v281.199219c0 14.558594 11.839844 26.398438 26.398438 26.398438h372.398437c14.558594 0 26.402344-11.839844 26.402344-26.398438v-281.199219c0-14.558593-11.84375-26.402343-26.402344-26.402343zm0 0"/><path d="m403.003906 307.5h-364.800781c-8.492187 0-15.402344-6.90625-15.402344-15.398438v-205.203124c0-8.492188 6.910157-15.398438 15.402344-15.398438h364.800781c8.488282 0 15.398438 6.90625 15.398438 15.398438v205.203124c0 8.492188-6.910156 15.398438-15.398438 15.398438zm-364.800781-228c-4.082031 0-7.402344 3.320312-7.402344 7.398438v205.203124c0 4.082032 3.320313 7.398438 7.402344 7.398438h364.800781c4.078125 0 7.398438-3.320312 7.398438-7.398438v-205.203124c0-4.082032-3.320313-7.398438-7.398438-7.398438zm0 0"/><path d="m352.4375 488h-263.671875c-8.085937 0-14.664063-6.578125-14.664063-14.664062v-5.273438c0-8.082031 6.578126-14.664062 14.664063-14.664062h263.671875c8.085938 0 14.664062 6.578124 14.664062 14.664062v5.273438c0 8.085937-6.578124 14.664062-14.664062 14.664062zm-263.671875-26.601562c-3.671875 0-6.664063 2.992187-6.664063 6.664062v5.273438c0 3.675781 2.992188 6.664062 6.664063 6.664062h263.671875c3.675781 0 6.664062-2.988281 6.664062-6.664062v-5.273438c0-3.671875-2.988281-6.664062-6.664062-6.664062zm0 0"/></g><path d="m131.261719 394.699219-15.324219 62.695312h209l-15.328125-62.695312zm0 0" fill="#a4c9ff"/><path d="m325.101562 461.398438h-209c-1.226562 0-2.386718-.5625-3.144531-1.527344-.757812-.96875-1.03125-2.226563-.742187-3.421875l15.328125-62.699219c.4375-1.789062 2.042969-3.050781 3.886719-3.050781h178.347656c1.84375 0 3.445312 1.261719 3.882812 3.050781l15.324219 62.699219c.292969 1.195312.023437 2.453125-.738281 3.421875-.757813.964844-1.917969 1.527344-3.144532 1.527344zm-203.902343-8h198.808593l-13.375-54.699219h-172.066406zm0 0" fill="#3762cc"/><path d="m158.601562 135.878906v107.242188c0 2.949218 3.085938 4.886718 5.742188 3.601562l110.816406-53.621094c3.011719-1.457031 3.011719-5.742187 0-7.203124l-110.816406-53.617188c-2.65625-1.289062-5.742188.648438-5.742188 3.597656zm0 0" fill="#f9a7a7"/><path d="m256.910156 41.804688v137.964843l-28.816406 75.230469c-1.460938 3.816406 2.285156 7.566406 6.105469 6.105469l78.992187-30.261719h132.757813c20.878906 0 37.804687-16.929688 37.804687-37.808594v-151.230468c0-20.878907-16.925781-37.804688-37.804687-37.804688h-151.230469c-20.878906 0-37.808594 16.925781-37.808594 37.804688zm0 0" fill="#6bdddd"/><path d="m232.464844 265.429688c-2.257813 0-4.445313-.886719-6.125-2.570313-2.472656-2.472656-3.230469-6.03125-1.980469-9.292969l28.554687-74.539062v-137.222656c-.003906-23.050782 18.75-41.804688 41.804688-41.804688h151.226562c23.054688 0 41.808594 18.753906 41.808594 41.804688v151.230468c0 23.050782-18.753906 41.808594-41.804687 41.808594h-132.015625l-78.304688 29.996094c-1.039062.394531-2.109375.589844-3.164062.589844zm62.253906-257.429688c-18.640625 0-33.808594 15.164062-33.808594 33.804688v137.964843c0 .492188-.089844.972657-.265625 1.429688l-28.816406 75.230469c-.042969.109374-.167969.4375.164063.773437.332031.328125.664062.203125.773437.164063l78.996094-30.261719c.457031-.171875.941406-.261719 1.429687-.261719h132.757813c18.640625 0 33.804687-15.167969 33.804687-33.808594v-151.230468c0-18.640626-15.164062-33.804688-33.804687-33.804688zm-37.808594 171.769531h.023438zm0 0" fill="#3762cc"/><path d="m221.410156 379.496094h-1.949218c-9.914063 0-18.023438-8.113282-18.023438-18.023438v-1.949218c0-9.914063 8.113281-18.027344 18.023438-18.027344h1.949218c9.914063 0 18.027344 8.113281 18.027344 18.027344v1.949218c0 9.914063-8.113281 18.023438-18.027344 18.023438zm0 0" fill="#a4c9ff"/><path d="m343.601562 135.144531 15.03125 1c2.167969.144531 3.78125 2.082031 3.535157 4.242188-1.285157 11.238281-4.988281 20.535156-11.105469 27.878906-6.824219 8.195313-15.839844 12.292969-27.050781 12.292969-13.648438 0-24.046875-5.492188-31.199219-16.480469-7.148438-10.984375-10.71875-26.117187-10.71875-45.390625 0-19.449219 3.542969-34.664062 10.640625-45.652344 7.09375-10.988281 17.628906-16.484375 31.601563-16.484375 22.132812 0 34.617187 14.210938 37.453124 42.628907.210938 2.132812-1.351562 4.039062-3.484374 4.207031l-14.578126 1.15625c-2.09375.164062-3.921874-1.417969-4.082031-3.511719-1.175781-15.316406-6.25-22.976562-15.230469-22.976562-5.089843 0-9.136718 2.882812-12.140624 8.640624-3.007813 5.757813-4.507813 16.921876-4.507813 33.492188 0 14.804688 1.378906 24.984375 4.140625 30.535156 2.761719 5.554688 6.90625 8.328125 12.433594 8.328125 8.210937 0 13.292968-6.878906 15.257812-20.636719.277344-1.964843 2.019532-3.398437 4.003906-3.269531zm0 0" fill="#e0ebfc"/><path d="m441.003906 135.144531 15.03125 1c2.167969.144531 3.78125 2.082031 3.535156 4.242188-1.285156 11.238281-4.988281 20.535156-11.105468 27.878906-6.824219 8.195313-15.839844 12.292969-27.050782 12.292969-13.648437 0-24.046874-5.492188-31.199218-16.480469-7.148438-10.984375-10.722656-26.117187-10.722656-45.390625 0-19.449219 3.546874-34.664062 10.644531-45.652344 7.09375-10.988281 17.628906-16.484375 31.601562-16.484375 22.132813 0 34.617188 14.210938 37.453125 42.628907.210938 2.132812-1.347656 4.039062-3.484375 4.207031l-14.578125 1.15625c-2.09375.164062-3.921875-1.417969-4.082031-3.511719-1.175781-15.316406-6.25-22.976562-15.230469-22.976562-5.089844 0-9.136718 2.882812-12.140625 8.640624-3.007812 5.757813-4.511719 16.921876-4.511719 33.492188 0 14.804688 1.382813 24.984375 4.144532 30.535156 2.761718 5.554688 6.90625 8.328125 12.429687 8.328125 8.214844 0 13.296875-6.878906 15.261719-20.636719.277344-1.964843 2.019531-3.398437 4.003906-3.269531zm0 0" fill="#e0ebfc"/></svg>