<?xml version="1.0" encoding="iso-8859-1"?>
<!-- Generator: Adobe Illustrator 18.0.0, SVG Export Plug-In . SVG Version: 6.00 Build 0)  -->
<!DOCTYPE svg PUBLIC "-//W3C//DTD SVG 1.1//EN" "http://www.w3.org/Graphics/SVG/1.1/DTD/svg11.dtd">
<svg version="1.1" id="Capa_1" xmlns="http://www.w3.org/2000/svg" xmlns:xlink="http://www.w3.org/1999/xlink" x="0px" y="0px"
	 viewBox="0 0 365.377 365.377" style="enable-background:new 0 0 365.377 365.377;" xml:space="preserve">
<path style="fill:#7C6655;" d="M289.645,128.297v26.891c0,7.877-3.464,15.297-9.503,20.355c-6.039,5.058-13.95,7.166-21.705,5.786
	l-34.674-6.175l-2.631,14.768l34.674,6.175c2.44,0.435,4.889,0.648,7.322,0.648c9.673,0,19.096-3.379,26.646-9.704
	c9.45-7.916,14.87-19.526,14.87-31.854v-26.891H289.645z"/>
<path style="fill:#7C6655;" d="M289.645,121.957v2.84h15v-2.84C304.645,54.709,249.936,0,182.689,0
	C115.441,0,60.732,54.709,60.732,121.957h15C75.732,62.981,123.713,15,182.689,15C241.665,15,289.645,62.981,289.645,121.957z"/>
<path style="fill:#E77200;" d="M88.59,153.079c-15.637,0-28.358-12.721-28.358-28.358S72.954,96.362,88.59,96.362h16.652v56.716
	H88.59z"/>
<path style="fill:#E77200;" d="M260.135,153.079V96.362h16.652c15.637,0,28.357,12.722,28.357,28.358s-12.721,28.358-28.357,28.358
	H260.135z"/>
<path style="fill:#51B7A6;" d="M271.039,289.192v75.912h-88.077V236.572l39.211,29.25l12.939-47.743
	c3.568,2.629,6.928,5.521,10.048,8.641C261.154,242.704,271.039,264.797,271.039,289.192z"/>
<path style="fill:#88C9B3;" d="M235.112,218.08l-12.939,47.743l-39.211-29.25v-0.207c0-0.076-0.033-0.153-0.087-0.207l27.199-30.985
	C219.161,208.13,227.595,212.515,235.112,218.08z"/>
<path style="fill:#E5DCC6;" d="M210.073,205.173l-27.199,30.985c-0.055-0.044-0.109-0.065-0.185-0.065s-0.131,0.022-0.185,0.065
	l-27.199-30.974c8.619-2.826,17.827-4.342,27.384-4.342S201.454,202.358,210.073,205.173z"/>
<polygon style="fill:#88C9B3;" points="182.961,236.572 182.961,365.104 182.689,365.104 182.689,236.365 "/>
<path style="fill:#88C9B3;" d="M182.874,236.158c0.055,0.055,0.087,0.131,0.087,0.207v0.207l-0.273-0.207L182.874,236.158z"/>
<path style="fill:#88C9B3;" d="M182.689,236.092c0.076,0,0.131,0.022,0.185,0.065l-0.185,0.207l-0.185-0.207
	C182.558,236.114,182.612,236.092,182.689,236.092z"/>
<polygon style="fill:#88C9B3;" points="182.689,236.365 182.689,365.104 182.416,365.104 182.416,236.572 "/>
<path style="fill:#88C9B3;" d="M182.416,236.365c0-0.076,0.033-0.153,0.087-0.207l0.185,0.207l-0.273,0.207V236.365z"/>
<path style="fill:#88C9B3;" d="M182.689,365.377c-0.153,0-0.273-0.12-0.273-0.273h0.273h0.273
	C182.961,365.257,182.841,365.377,182.689,365.377z"/>
<path style="fill:#88C9B3;" d="M155.304,205.184l27.199,30.974c-0.055,0.055-0.087,0.131-0.087,0.207v0.207l-39.222,29.25
	l-12.939-47.732C137.783,212.526,146.216,208.13,155.304,205.184z"/>
<path style="fill:#51B7A6;" d="M182.416,236.572v128.532H94.339v-75.912c0-29.152,14.129-55.02,35.916-71.101l12.939,47.732
	L182.416,236.572z"/>
<path style="fill:#88C9B3;" d="M203.745,296.37c-0.524,0-1.069-0.054-1.593-0.164c-0.524-0.098-1.037-0.262-1.528-0.458
	c-0.502-0.207-0.971-0.458-1.418-0.753c-0.447-0.305-0.862-0.644-1.244-1.026c-0.382-0.371-0.72-0.796-1.014-1.244
	c-0.295-0.436-0.546-0.916-0.753-1.407c-0.208-0.491-0.36-1.014-0.469-1.527c-0.109-0.534-0.164-1.069-0.164-1.604
	c0-0.534,0.054-1.069,0.164-1.593s0.262-1.036,0.469-1.538c0.207-0.491,0.458-0.971,0.753-1.407
	c0.295-0.447,0.632-0.873,1.014-1.244c0.382-0.382,0.796-0.72,1.244-1.015c0.447-0.295,0.916-0.556,1.418-0.753
	c0.491-0.207,1.004-0.371,1.528-0.469c1.058-0.218,2.138-0.218,3.196,0c0.524,0.098,1.037,0.262,1.527,0.469
	c0.502,0.197,0.971,0.458,1.419,0.753c0.447,0.295,0.862,0.633,1.244,1.015c1.516,1.527,2.4,3.633,2.4,5.782
	c0,0.535-0.054,1.07-0.164,1.604c-0.109,0.513-0.262,1.037-0.469,1.527c-0.207,0.491-0.458,0.971-0.753,1.407
	c-0.295,0.447-0.644,0.873-1.014,1.244c-0.382,0.382-0.796,0.72-1.244,1.026c-0.447,0.295-0.916,0.546-1.419,0.753
	c-0.491,0.197-1.004,0.36-1.527,0.458C204.825,296.316,204.279,296.37,203.745,296.37z"/>
<path style="fill:#88C9B3;" d="M203.745,335.068c-0.524,0-1.069-0.054-1.593-0.164c-0.524-0.098-1.037-0.262-1.528-0.458
	c-0.502-0.207-0.971-0.458-1.418-0.753c-0.447-0.305-0.862-0.644-1.244-1.025c-0.382-0.371-0.72-0.796-1.014-1.244
	c-0.295-0.436-0.546-0.916-0.753-1.407c-0.208-0.491-0.36-1.014-0.469-1.527c-0.109-0.534-0.164-1.069-0.164-1.604
	c0-0.534,0.054-1.069,0.164-1.593c0.109-0.524,0.262-1.036,0.469-1.538c0.207-0.491,0.458-0.971,0.753-1.407
	c0.295-0.447,0.632-0.873,1.014-1.244c0.382-0.382,0.796-0.72,1.244-1.015c0.447-0.295,0.916-0.556,1.418-0.753
	c0.491-0.207,1.004-0.371,1.528-0.469c1.058-0.218,2.138-0.218,3.196,0c0.524,0.098,1.037,0.262,1.527,0.469
	c0.502,0.197,0.971,0.458,1.419,0.753c0.447,0.295,0.862,0.633,1.244,1.015c1.516,1.527,2.4,3.633,2.4,5.782
	c0,0.535-0.054,1.07-0.164,1.604c-0.109,0.513-0.262,1.037-0.469,1.527c-0.207,0.491-0.458,0.971-0.753,1.407
	c-0.295,0.447-0.644,0.873-1.014,1.244c-0.382,0.382-0.796,0.72-1.244,1.025c-0.447,0.295-0.916,0.546-1.419,0.753
	c-0.491,0.197-1.004,0.36-1.527,0.458C204.825,335.014,204.279,335.068,203.745,335.068z"/>
<path style="fill:#FCF4DE;" d="M221.132,189.922l2.631-14.768l22.707,4.044c12.324-14.557,19.77-33.376,19.77-53.943
	c0-46.143-37.406-83.549-83.549-83.549s-83.549,37.406-83.549,83.549c0,46.143,37.406,83.549,83.549,83.549
	c18.854,0,36.244-6.25,50.225-16.784L221.132,189.922z"/>
<path style="fill:#7C6655;" d="M152.14,119.965c-0.534,0-1.069-0.054-1.593-0.164c-0.524-0.098-1.036-0.262-1.538-0.469
	c-0.491-0.197-0.971-0.459-1.407-0.753c-0.447-0.295-0.873-0.632-1.244-1.014c-0.382-0.371-0.72-0.796-1.015-1.244
	c-0.295-0.436-0.556-0.916-0.753-1.407c-0.207-0.502-0.36-1.014-0.469-1.538c-0.109-0.524-0.164-1.058-0.164-1.593
	c0-2.16,0.873-4.265,2.4-5.782c0.371-0.382,0.796-0.72,1.244-1.025c0.436-0.295,0.916-0.546,1.407-0.753
	c0.502-0.197,1.014-0.36,1.538-0.458c2.651-0.535,5.477,0.327,7.386,2.236c1.517,1.517,2.389,3.622,2.389,5.782
	c0,2.15-0.873,4.266-2.389,5.783C156.406,119.092,154.3,119.965,152.14,119.965z"/>
<path style="fill:#7C6655;" d="M213.237,119.965c-0.534,0-1.069-0.054-1.593-0.164c-0.524-0.098-1.036-0.262-1.538-0.469
	c-0.491-0.197-0.971-0.459-1.407-0.753c-0.447-0.295-0.873-0.632-1.244-1.014c-0.382-0.371-0.72-0.796-1.015-1.244
	c-0.295-0.436-0.556-0.916-0.753-1.407c-0.207-0.502-0.371-1.014-0.469-1.538c-0.109-0.524-0.164-1.058-0.164-1.593
	c0-0.534,0.055-1.069,0.164-1.603c0.099-0.513,0.262-1.037,0.469-1.527c0.197-0.491,0.458-0.971,0.753-1.407
	c0.295-0.458,0.633-0.873,1.015-1.255c0.371-0.371,0.796-0.71,1.244-1.015c0.436-0.295,0.916-0.546,1.407-0.753
	c0.502-0.197,1.014-0.36,1.538-0.458c1.047-0.218,2.138-0.218,3.197,0c0.524,0.098,1.036,0.262,1.527,0.458
	c0.491,0.207,0.971,0.458,1.418,0.753c0.447,0.305,0.862,0.644,1.233,1.015c0.381,0.381,0.72,0.796,1.025,1.255
	c0.295,0.436,0.546,0.916,0.753,1.407c0.197,0.491,0.36,1.014,0.458,1.527c0.109,0.534,0.164,1.069,0.164,1.603
	c0,0.535-0.054,1.069-0.164,1.593c-0.098,0.524-0.262,1.037-0.458,1.538c-0.207,0.491-0.458,0.971-0.753,1.407
	c-0.306,0.447-0.644,0.873-1.025,1.244c-0.371,0.382-0.786,0.72-1.233,1.014c-0.447,0.295-0.927,0.557-1.418,0.753
	c-0.491,0.207-1.004,0.371-1.527,0.469C214.306,119.91,213.771,119.965,213.237,119.965z"/>
<rect x="174.779" y="236.572" style="fill:#88C9B3;" width="15.274" height="128.532"/>
<circle style="fill:#E77200;" cx="214.192" cy="181.297" r="13.183"/>
<g>
</g>
<g>
</g>
<g>
</g>
<g>
</g>
<g>
</g>
<g>
</g>
<g>
</g>
<g>
</g>
<g>
</g>
<g>
</g>
<g>
</g>
<g>
</g>
<g>
</g>
<g>
</g>
<g>
</g>
</svg>
